<svg xmlns="http://www.w3.org/2000/svg" viewBox="0 0 16 16"><path fill="#4E7AB5" d="M2 0h4v13.1H2z"/><path fill="#8BB7F0" d="M5 1v11.1H3V1h2"/><path fill="#4E7AB5" d="M10 1h4v11h-4z"/><path fill="#8BB7F0" d="M13 2v9h-2V2h2"/><path fill="#5E9C76" d="M5 2.1h4v11H5z"/><path fill="#BAE0BD" d="M8 3.1v9H6v-9h2"/><path fill="#967A44" d="M4 11.1H1v3.4c0 .8.7 1.5 1.5 1.5S4 15.3 4 14.5v-3.4z"/><path fill="#DEB974" d="M3 12.1v2.4c0 .3-.2.5-.5.5s-.5-.2-.5-.5v-2.4h1"/><path fill="#967A44" d="M15 11.1h-3v3.4c0 .8.7 1.5 1.5 1.5s1.5-.7 1.5-1.5v-3.4z"/><path fill="#DEB974" d="M14 12.1v2.4c0 .3-.2.5-.5.5s-.5-.2-.5-.5v-2.4h1"/><path fill="#967A44" d="M0 11h16v3H0z"/><path fill="#F5CE85" d="M15 12v1H1v-1h14"/></svg>