<svg xmlns="http://www.w3.org/2000/svg" viewBox="0 0 50 50"><path fill="#4E7AB5" d="M34.7 7H7v36h36V15.3L34.7 7z"/><path fill="#8BB7F0" d="m34.3 8 7.7 7.7V42H8V8h26.3z"/><path fill="#385C7C" d="M11 24h28v19H11V24z"/><path fill="#FFF" d="M38 25v17H12V25h26z"/><path fill="#4E7AB5" d="M32 7H14v10c0 1.1.9 2 2 2h16V7z"/><path fill="#385C7C" d="M33 7H19c-1.1 0-2 .9-2 2v8c0 1.1.9 2 2 2h14c1.1 0 2-.9 2-2V9c0-1.1-.9-2-2-2z"/><path fill="#C8D1DB" d="M33 8c.6 0 1 .4 1 1v8c0 .6-.4 1-1 1H19c-.6 0-1-.4-1-1V9c0-.6.4-1 1-1h14z"/><path fill="#BFE5F7" d="M15 29h20v1H15v-1zm0 4h20v1H15v-1zm0 4h20v1H15v-1z"/><path fill="#385C7C" d="M28 10h3v6h-3v-6z"/></svg>