<svg xmlns="http://www.w3.org/2000/svg" viewBox="0 0 50 50"><path fill="#4E7AB5" d="M34.7 7H10c-1.6 0-3 1.3-3 3v30c0 1.7 1.3 3 3 3h30c1.7 0 3-1.3 3-3V15.3L34.7 7z"/><path fill="#8BB7F0" d="m34.3 8 7.7 7.7V40c0 1.1-.9 2-2 2H9.9c-1 0-1.9-.9-1.9-1.9V10c0-1.1.9-2 2-2h24.3z"/><path fill="#385C7C" d="M40 40c-.6 0-1-.4-1-1s.4-1 1-1 1 .4 1 1-.4 1-1 1zm-30 0c-.6 0-1-.4-1-1s.4-1 1-1 1 .4 1 1-.4 1-1 1zm2-16h26v19H12V24z"/><path fill="#FFF" d="M37 25v17H13V25h24z"/><path fill="#788B9C" d="M16 29h18v1H16v-1zm0 4h18v1H16v-1zm0 4h18v1H16v-1z"/><path fill="#4E7AB5" d="M32 7H14v10c0 1.1.9 2 2 2h16V7z"/><path fill="#385C7C" d="M33 7H19c-1.1 0-2 .9-2 2v8c0 1.1.9 2 2 2h14c1.1 0 2-.9 2-2V9c0-1.1-.9-2-2-2z"/><path fill="#C8D1DB" d="M33 8c.6 0 1 .4 1 1v8c0 .6-.4 1-1 1H19c-.6 0-1-.4-1-1V9c0-.6.4-1 1-1h14z"/><path fill="#385C7C" d="M28 10h3v6h-3v-6z"/></svg>