<svg xmlns="http://www.w3.org/2000/svg" viewBox="0 0 16 16"><path fill="#FF18F8" d="m5 8-5 5 4 2 4-4z"/><path fill="#FFA6FF" d="M5 9.4 6.6 11l-2.8 2.8-2.1-1.1z"/><path fill="#788B9C" d="M8 0 6 2l-.4.4c-.4.4-.6.9-.6 1.5V5l-3 5 4 4 5-3h1.1c.6 0 1.1-.2 1.5-.6l.4-.4 2-2-8-8z"/><path fill="#F2FAFF" d="M8 1.4 14.6 8l-1.3 1.3-.3.4c-.2.2-.5.3-.8.3h-1.4l-.2.1-4.3 2.6-3-2.9 2.6-4.3.1-.2V3.9c0-.3.1-.6.3-.8l.4-.4L8 1.4z"/><path fill="#FF18F8" d="M8 0 7 1l8 8 1-1-8-8z"/><path fill="#D6E3ED" d="M12.1 10c.2 0 .4-.1.6-.2L6.2 3.2c-.1.2-.2.4-.2.7v1.4l4.7 4.7h1.4z"/></svg>