<svg xmlns="http://www.w3.org/2000/svg" viewBox="0 0 16 16"><path fill="#8bb7f0" d="M14.6 1H1.4C.8 1.1.1 1.5 0 2.4v11.3c.1.6.6 1.1 1.2 1.2h13.5c.6-.1 1.1-.6 1.2-1.2V2.4c0-.4-.4-1.2-1.3-1.4zm-.1 13h-5c-.8-2.6-.6-5.5-.6-5.5h-2C7 7 7.7 3.5 8.5 2h6c.3 0 .5.2.5.5v11c0 .3-.2.5-.5.5z"/><path fill="#e1ebf2" d="M14.5 2h-6c-.2.5-.4 1.1-.5 1.6-.4 1.5-.8 3.2-.9 4.7h2c-.2 1.1-.3 3.4.5 5.7h5c.3 0 .5-.2.5-.5v-11c-.1-.3-.3-.5-.6-.5z"/><path fill="#446d99" d="M4 4h1v2H4V4zm7 0h1v2h-1V4z"/><path fill="#446d99" d="M16 2.2c-.2-.7-.8-1.2-1.5-1.2h-13C.7 1 0 1.7 0 2.5v11c0 .8.7 1.5 1.5 1.5h13c.8 0 1.5-.7 1.5-1.5V2.2zM1.5 14c-.3 0-.5-.2-.5-.5v-11c0-.3.2-.5.5-.5h6.1c-.3.7-1.5 5.4-1.5 7h2v2c-2.1.1-3.8-.4-5.3-1l-.5 1c1.7.6 3.6 1.1 5.9 1.1.1.7.2 1.2.4 1.9H1.5zm13.5-.5c0 .3-.2.5-.5.5H9.7c-.2-.7-.3-1.2-.4-1.9 1.5-.1 3-.5 4.5-1.1l-.4-.9c-1.4.5-2.8.8-4.2.9-.1-.8 0-2.9 0-2.9h-2C7.4 6.6 8.3 2.6 8.6 2h5.9c.3 0 .5.2.5.5v11z"/></svg>