<svg xmlns="http://www.w3.org/2000/svg" viewBox="0 0 16 16"><path fill="#7496C4" d="M16 1.5v13c0 .8-.7 1.5-1.5 1.5h-12c-.8 0-1.5-.7-1.5-1.5v-13C1 .7 1.7 0 2.5 0h12c.8 0 1.5.7 1.5 1.5z"/><path fill="#DBF2FF" d="M2 14.5c0 .3.2.5.5.5h12c.3 0 .5-.2.5-.5v-13c0-.3-.2-.5-.5-.5h-12c-.3 0-.5.2-.5.5v13z"/><path fill="#4E7AB5" d="M16 1.5V5H1V1.5C1 .7 1.7 0 2.5 0h12c.8 0 1.5.7 1.5 1.5z"/><path fill="#8BB7F0" d="M15 4V1.5c0-.3-.2-.5-.5-.5h-12c-.3 0-.5.2-.5.5V4h13z"/><path fill="#4E7AB5" d="M4 10h3v4h3v-4h3L8.5 5z"/><path fill="#8BB7F0" d="m6.2 9 2.3-2.5L10.8 9H9v4H8V9z"/></svg>