<svg xmlns="http://www.w3.org/2000/svg" viewBox="0 0 50 50"><path fill="#8BB7F0" d="M9 32.5c-1.4 0-2.5-1.1-2.5-2.5V20c0-1.4 1.1-2.5 2.5-2.5h5.5v15H9z"/><path fill="#4E7AB5" d="M14 18v14H9c-1.1 0-2-.9-2-2V20c0-1.1.9-2 2-2h5m1-1H9c-1.7 0-3 1.3-3 3v10c0 1.7 1.3 3 3 3h6V17z"/><path fill="#8BB7F0" d="M14.5 32.9V17.3l12-10.2v35.8l-12-10z"/><path fill="#4E7AB5" d="M25.6 7.2 14 17v16.1l11.5 9.6c.6.5 1.5.1 1.5-.7V7.9c0-.8-.9-1.2-1.4-.7zm.4 32.9c0 .7-.8 1.1-1.3.6l-9.7-8V17.5l9.8-8.3c.5-.4 1.2-.1 1.2.5v30.4zm4.2-9.4c3-1 4.2-3.5 4.2-5.7s-1.3-4.8-4.2-5.7l.6-2c3.4 1 5.6 4.1 5.6 7.7 0 3.5-2.2 6.5-5.6 7.6l-.6-1.9z"/><path fill="#A7D5FF" d="m30.5 31.7-.3-1c2.5-.8 4.2-3.1 4.2-5.7s-1.7-4.9-4.2-5.7l.3-1c2.9.9 4.9 3.6 4.9 6.7s-1.9 5.7-4.9 6.7z"/><path fill="#4E7AB5" d="M31.9 35.8c5.1-1.9 7.6-6.5 7.6-10.9 0-4.5-2.7-9.1-7.6-10.7l.6-1.8c5.3 1.9 8.9 7 8.9 12.6s-3.6 10.7-8.9 12.6l-.6-1.8z"/><path fill="#A7D5FF" d="m32.2 36.7-.3-.9c4.5-1.6 7.6-6 7.6-10.8s-3-9.2-7.6-10.8l.3-.9c4.9 1.8 8.2 6.5 8.2 11.7s-3.3 9.9-8.2 11.7z"/></svg>