<svg xmlns="http://www.w3.org/2000/svg" viewBox="0 0 16 16"><path fill="#4E7AB5" d="M9 0 3.5 4H1c-.6 0-1 .4-1 1v6c0 .6.4 1 1 1h2.5L9 16V0z"/><path fill="#8BB7F0" d="M8 2v12l-3.9-2.8-.3-.2H1V5h2.8l.3-.2z"/><path fill="#4E7AB5" d="M3 4h1v8H3V4zm6.5 5.9C10 9.8 11 9.3 11 8c0-1.2-1-1.8-1.5-1.9L10 4c1.8.4 3 1.9 3 4 0 1.9-1.2 3.4-3 3.8l-.5-1.9z"/><path fill="#D6ECFF" d="m9.8 10.9-.3-1c.9-.2 1.5-1 1.5-1.9s-.6-1.7-1.5-1.9l.2-1C11.1 5.4 12 6.6 12 8s-.8 2.6-2.2 2.9z"/><path fill="#4E7AB5" d="M10 11.8c1.5-.4 3-1.7 3-3.8 0-2.3-1.5-3.5-3-4l.6-1.9C13.3 3 15 5.4 15 8c0 2.7-1.8 5-4.4 5.8l-.6-2z"/><path fill="#D6ECFF" d="m10.3 12.8-.3-1c1.8-.5 3-2 3-3.9S11.8 4.5 10 4l.3-1c2.2.8 3.7 2.7 3.7 5s-1.5 4.2-3.7 4.8z"/></svg>