<svg xmlns="http://www.w3.org/2000/svg" viewBox="0 0 50 50"><path fill="#385C7C" d="M38 13H12v2H9c-1.7 0-3 1.3-3 3v16c0 1.7 1.3 3 3 3h32c1.7 0 3-1.3 3-3V18c0-1.7-1.3-3-3-3h-3v-2z"/><path fill="#B0C1D4" d="M37 14v2h4c1.1 0 2 .9 2 2v16c0 1.1-.9 2-2 2H9c-1.1 0-2-.9-2-2V18c0-1.1.9-2 2-2h4v-2h24z"/><path fill="#788B9C" d="M13 6h24v11H13V6z"/><path fill="#FFF" d="M14 7h22v9H14V7z"/><path fill="#4E7AB5" d="M37 15H13v8c0 1.7 1.3 3 3 3h18c1.7 0 3-1.3 3-3v-8z"/><path fill="#8BB7F0" d="M36 16v7c0 1.1-.9 2-2 2H16c-1.1 0-2-.9-2-2v-7h22z"/><path fill="#788B9C" d="M13 30h24v14H13V30z"/><path fill="#FFF" d="M36 31v12H14V31h22z"/><path fill="#D6E3ED" d="M14 31h22v3H14v-3z"/><path fill="#788B9C" d="M18.2 34h13.6v1H18.2zm0 4h13.6v1H18.2z"/><path fill="#FFEEA3" d="M40 19c-.6 0-1 .4-1 1s.4 1 1 1 1-.4 1-1-.4-1-1-1z"/><path fill="#385C7C" d="M14 33v-2h22v2h1.5c.8 0 1.5-.7 1.5-1.5s-.7-1.5-1.5-1.5h-25c-.8 0-1.5.7-1.5 1.5s.7 1.5 1.5 1.5H14z"/></svg>