<svg xmlns="http://www.w3.org/2000/svg" viewBox="0 0 16 16"><path fill="#A3B7CC" d="M1 15.8 0 16l.2-1 7.4-7.4.7.7L1 15.8z"/><path fill="#4E7AB5" d="M11 1.5C10 4 8.6 5.2 6.3 6.3l3.4 3.4c.9-2.3 2.1-3.7 4.8-4.7L11 1.5z"/><path fill="#40ACF4" d="m11.3 3.2 1.4 1.4c-1.5.9-2.5 1.9-3.3 3.4L8 6.6c1.4-.9 2.5-1.9 3.3-3.4z"/><path fill="#4E7AB5" d="m11.2 0-.9.9c-.4.4-.4 1.2 0 1.6l3.1 3.1c.4.4 1.2.4 1.6 0l1-.8L11.2 0zM5.5 5c-.7 0-1.3.2-1.8.7l-.7.7L9.6 13l.7-.7c1-1 1-2.6 0-3.5l-3-3C6.8 5.3 6.1 5 5.5 5z"/><path fill="#40ACF4" d="M5.5 6c.4 0 .8.2 1.1.4l3 3c.6.6.6 1.5 0 2.1L4.4 6.4c.3-.2.7-.4 1.1-.4z"/></svg>