<svg xmlns="http://www.w3.org/2000/svg" viewBox="0 0 50 50"><path fill="#4E7AB5" d="M34.5 6h-.4l-.6 2.4c-.2.7-.7 1-1.3 1-.3 0-.7-.1-.9-.4l-1.7-1.7c-.4.2-.3.2-.7.4l.8 2.3c.3.9-.4 1.8-1.3 1.8h-.3l-2.3-.5c-.2.4-.2.3-.3.7l1.9 1.5c.8.6.6 1.9-.3 2.3l-2.1 1c.1.5.1.4.1.9l2.2.2c1 .1 1.6 1.3 1 2.1l-1.2 1.7c.3.4.3.3.6.7l1.8-.9c.2-.1.4-.2.6-.2.7 0 1.4.6 1.4 1.4l-.1 2c.5.1.4.1.9.3l1-1.7c.3-.5.7-.7 1.2-.7s.9.2 1.2.7l1 1.7c.5-.1.4-.1.9-.3l-.1-2c0-.8.6-1.4 1.4-1.4.2 0 .4.1.6.2l1.8.9c.3-.4.3-.3.6-.7L40.6 20c-.6-.9-.1-2 1-2.1l2.2-.2c.1-.5.1-.4.1-.9l-2-.8c-1-.4-1.2-1.7-.3-2.3l1.9-1.5c-.2-.4-.2-.3-.3-.7l-2.3.5h-.3c-.9 0-1.6-.9-1.3-1.8l.7-2.4c-.4-.2-.3-.2-.7-.4L37.7 9c-.3.3-.6.4-.9.4-.6 0-1.2-.4-1.3-1L34.9 6h-.4z"/><path fill="#BCE8FF" d="M32.2 22.8c0-.6-.2-1.1-.6-1.5s-.9-.6-1.5-.6c-.3 0-.7.1-.9.2l-1.1.6.7-1.1c.4-.6.5-1.4.2-2-.3-.7-.9-1.1-1.7-1.2l-1.3-.1 1.2-.5c.7-.3 1.1-.9 1.3-1.6.1-.7-.2-1.4-.7-1.9l-1-.8 1.2.2h.4c.7 0 1.3-.3 1.7-.9.4-.5.5-1.2.3-1.8L30 8.6l.9.8c.4.4.9.6 1.4.6 1 0 1.8-.6 2-1.6l.3-1.2.3 1.2c.2.9 1 1.6 2 1.6.5 0 1-.2 1.4-.6l.7-.7-.4 1.2c-.2.6-.1 1.3.3 1.8s1 .9 1.7.9h.4l1.2-.2-1 .8c-.6.5-.9 1.2-.7 1.9s.6 1.3 1.3 1.6l1.2.5-1.3.1c-.7.1-1.4.5-1.7 1.2s-.2 1.4.2 2l.7 1.1-1.1-.6c-.3-.2-.6-.2-.9-.2-.6 0-1.1.2-1.5.6s-.6.9-.6 1.5l.1 1.2-.6-1c-.4-.6-1-1-1.8-1-.7 0-1.4.4-1.8 1l-.6 1 .1-1.3z"/><path fill="#A98C3F" d="M33.9 12.8c-.3 0-.7.1-1 .4L6.4 39.8c-.5.5-.5 1.4 0 1.9l1.9 1.9c.3.3.6.4 1 .4.3 0 .7-.1 1-.4L36.8 17c.5-.5.5-1.4 0-1.9l-1.9-1.9c-.3-.3-.6-.4-1-.4z"/><path fill="#FFEEA3" d="M9.3 43.3c-.2 0-.4-.1-.5-.2l-1.9-1.9c-.1-.1-.2-.3-.2-.5s.1-.4.2-.5l26.6-26.6c.1-.1.3-.2.5-.2s.4.1.5.2l1.9 1.9c.1.1.2.3.2.5s-.1.4-.2.5L9.8 43.1c-.2.2-.3.2-.5.2z"/><path fill="#66798F" d="M23.8 22.4 6.4 39.8c-.5.5-.5 1.4 0 1.9l1.9 1.9c.3.3.6.4 1 .4.3 0 .7-.1 1-.4l17.4-17.4-3.9-3.8z"/><path fill="#839CB2" d="m7.3 40.7 16.4-16.4 1.9 1.9L9.2 42.6l-1.9-1.9z"/><path fill="#4E7AB5" d="M41.2 37h-1.4c0 1.5-1.3 2.8-2.8 2.8v1.4c1.5 0 2.8 1.3 2.8 2.8h1.4c0-1.5 1.3-2.8 2.8-2.8v-1.4c-1.5 0-2.8-1.3-2.8-2.8z"/><path fill="#BCE8FF" d="M40.4 43.3c-.3-1.4-1.4-2.5-2.7-2.7v-.1c1.4-.3 2.5-1.4 2.7-2.7h.1c.3 1.4 1.4 2.5 2.7 2.7v.1c-1.4.3-2.5 1.4-2.8 2.7z"/><path fill="#4E7AB5" d="M33.2 30h-1.4c0 1.5-1.3 2.8-2.8 2.8v1.4c1.5 0 2.8 1.3 2.8 2.8h1.4c0-1.5 1.3-2.8 2.8-2.8v-1.4c-1.5 0-2.8-1.3-2.8-2.8z"/><path fill="#BCE8FF" d="M32.4 36.3c-.3-1.4-1.4-2.5-2.7-2.7v-.1c1.4-.3 2.5-1.4 2.7-2.7h.1c.3 1.4 1.4 2.5 2.7 2.7v.1c-1.4.3-2.5 1.4-2.8 2.7z"/><path fill="#4E7AB5" d="M17.2 11h-1.4c0 1.5-1.3 2.8-2.8 2.8v1.4c1.5 0 2.8 1.3 2.8 2.8h1.4c0-1.5 1.3-2.8 2.8-2.8v-1.4c-1.5 0-2.8-1.3-2.8-2.8z"/><path fill="#BCE8FF" d="M16.4 17.3c-.3-1.4-1.4-2.4-2.7-2.7v-.1c1.4-.3 2.4-1.4 2.7-2.7h.1c.3 1.4 1.4 2.4 2.7 2.7v.1c-1.4.3-2.4 1.4-2.7 2.7h-.1z"/></svg>