<svg xmlns="http://www.w3.org/2000/svg" viewBox="0 0 50 50"><path fill="#788B9C" d="M6 6h26v26H6z"/><path fill="#F2FAFF" d="M7 7h24v24H7z"/><path fill="#4E7AB5" d="M44 18H31L18 31v13h26z"/><path fill="#8BB7F0" d="M43 19v24H19V31.4L31.4 19z"/><path fill="#FFF" d="M27.7 33h7.5v3h-7.5v-3z"/><path fill="#FFF" d="M33.4 25h-3.8l-5.2 14h3.3l3.6-11.3h.1L35.1 39h3.3l-5-14z"/><path fill="#788B9C" d="M12 26v-2c2.3 0 4.1-.6 5.6-1.5-2.7-1.6-4.3-3.8-4.4-3.9l1.6-1.1s1.7 2.4 4.5 3.7c1.8-1.7 2.8-3.8 3.3-5.1H12v-2h6v-3h2v3h6v2h-1.3c-.4 1.2-1.4 3.7-3.4 5.8.5.1 1.1.2 1.6.2v2c-1.2 0-2.3-.2-3.3-.6-1.8 1.4-4.3 2.5-7.6 2.5z"/></svg>